HIERARCHY
ROOT Hips
{
	OFFSET -14.64140 90.27770 -84.91600
	CHANNELS 6 Xposition Yposition Zposition Zrotation Xrotation Yrotation
	JOINT Spine
	{
		OFFSET 0.00000 13.20850 -1.60436
		CHANNELS 3 Zrotation Xrotation Yrotation
		JOINT Spine1
		{
			OFFSET 0.00000 8.61716 0.00000
			CHANNELS 3 Zrotation Xrotation Yrotation
			JOINT Spine2
			{
				OFFSET 0.00000 8.61717 0.00000
				CHANNELS 3 Zrotation Xrotation Yrotation
				JOINT Spine3
				{
					OFFSET 0.00000 8.61717 0.00000
					CHANNELS 3 Zrotation Xrotation Yrotation
					JOINT Neck
					{
						OFFSET 0.00000 11.07920 1.10792
						CHANNELS 3 Zrotation Xrotation Yrotation
						JOINT Neck1
						{
							OFFSET 0.00000 7.08032 0.00000
							CHANNELS 3 Zrotation Xrotation Yrotation
							JOINT Head
							{
								OFFSET 0.00000 7.08031 0.00000
								CHANNELS 3 Zrotation Xrotation Yrotation
								End site
								{
									OFFSET 0.00000 0.00000 0.00000
								}
							}
						}
					}
					JOINT RightShoulder
					{
						OFFSET -0.01000 7.91373 5.19711
						CHANNELS 3 Zrotation Xrotation Yrotation
						JOINT RightArm
						{
							OFFSET -18.41580 0.00000 0.00000
							CHANNELS 3 Zrotation Xrotation Yrotation
							JOINT RightForeArm
							{
								OFFSET -29.11090 0.00000 0.00000
								CHANNELS 3 Zrotation Xrotation Yrotation
								JOINT RightHand
								{
									OFFSET -24.65040 0.00000 0.00000
									CHANNELS 3 Zrotation Xrotation Yrotation
									JOINT RightHandThumb1
									{
										OFFSET -5.35114 -0.85590 3.97906
										CHANNELS 3 Zrotation Xrotation Yrotation
										JOINT RightHandThumb2
										{
											OFFSET -4.52789 0.00000 0.00000
											CHANNELS 3 Zrotation Xrotation Yrotation
											JOINT RightHandThumb3
											{
												OFFSET -2.46976 0.00000 0.00000
												CHANNELS 3 Zrotation Xrotation Yrotation
												End site
												{
													OFFSET 0.00000 0.00000 0.00000
												}
											}
										}
									}
									JOINT RightHandIndex1
									{
										OFFSET -14.26970 0.00000 2.88139
										CHANNELS 3 Zrotation Xrotation Yrotation
										JOINT RightHandIndex2
										{
											OFFSET -5.48836 0.00000 0.00000
											CHANNELS 3 Zrotation Xrotation Yrotation
											JOINT RightHandIndex3
											{
												OFFSET -3.01859 0.00000 0.00000
												CHANNELS 3 Zrotation Xrotation Yrotation
												End site
												{
													OFFSET 0.00000 0.00000 0.00000
												}
											}
										}
									}
									JOINT RightHandMiddle1
									{
										OFFSET -14.26970 0.00000 -0.09147
										CHANNELS 3 Zrotation Xrotation Yrotation
										JOINT RightHandMiddle2
										{
											OFFSET -6.17441 0.00000 0.00000
											CHANNELS 3 Zrotation Xrotation Yrotation
											JOINT RightHandMiddle3
											{
												OFFSET -3.56743 0.00000 0.00000
												CHANNELS 3 Zrotation Xrotation Yrotation
												End site
												{
													OFFSET 0.00000 0.00000 0.00000
												}
											}
										}
									}
									JOINT RightHandRing1
									{
										OFFSET -12.69180 0.00000 -3.06433
										CHANNELS 3 Zrotation Xrotation Yrotation
										JOINT RightHandRing2
										{
											OFFSET -5.62556 0.00000 0.00000
											CHANNELS 3 Zrotation Xrotation Yrotation
											JOINT RightHandRing3
											{
												OFFSET -3.56744 0.00000 0.00000
												CHANNELS 3 Zrotation Xrotation Yrotation
												End site
												{
													OFFSET 0.00000 0.00000 0.00000
												}
											}
										}
									}
									JOINT RightHandPinky1
									{
										OFFSET -11.11390 0.00000 -6.03719
										CHANNELS 3 Zrotation Xrotation Yrotation
										JOINT RightHandPinky2
										{
											OFFSET -4.52789 0.00000 0.00000
											CHANNELS 3 Zrotation Xrotation Yrotation
											JOINT RightHandPinky3
											{
												OFFSET -2.46976 0.00000 0.00000
												CHANNELS 3 Zrotation Xrotation Yrotation
												End site
												{
													OFFSET 0.00000 0.00000 0.00000
												}
											}
										}
									}
								}
							}
						}
					}
					JOINT LeftShoulder
					{
						OFFSET 0.01000 7.91373 5.19711
						CHANNELS 3 Zrotation Xrotation Yrotation
						JOINT LeftArm
						{
							OFFSET 18.41580 0.00000 0.00000
							CHANNELS 3 Zrotation Xrotation Yrotation
							JOINT LeftForeArm
							{
								OFFSET 29.11090 0.00000 0.00000
								CHANNELS 3 Zrotation Xrotation Yrotation
								JOINT LeftHand
								{
									OFFSET 24.65040 0.00000 0.00000
									CHANNELS 3 Zrotation Xrotation Yrotation
									JOINT LeftHandThumb1
									{
										OFFSET 5.35114 -0.85590 3.97906
										CHANNELS 3 Zrotation Xrotation Yrotation
										JOINT LeftHandThumb2
										{
											OFFSET 4.52789 0.00000 0.00000
											CHANNELS 3 Zrotation Xrotation Yrotation
											JOINT LeftHandThumb3
											{
												OFFSET 2.46977 0.00000 0.00000
												CHANNELS 3 Zrotation Xrotation Yrotation
												End site
												{
													OFFSET 0.00000 0.00000 0.00000
												}
											}
										}
									}
									JOINT LeftHandIndex1
									{
										OFFSET 14.26970 0.00000 2.88139
										CHANNELS 3 Zrotation Xrotation Yrotation
										JOINT LeftHandIndex2
										{
											OFFSET 5.48836 0.00000 0.00000
											CHANNELS 3 Zrotation Xrotation Yrotation
											JOINT LeftHandIndex3
											{
												OFFSET 3.01859 0.00000 0.00000
												CHANNELS 3 Zrotation Xrotation Yrotation
												End site
												{
													OFFSET 0.00000 0.00000 0.00000
												}
											}
										}
									}
									JOINT LeftHandMiddle1
									{
										OFFSET 14.26970 0.00000 -0.09147
										CHANNELS 3 Zrotation Xrotation Yrotation
										JOINT LeftHandMiddle2
										{
											OFFSET 6.17440 0.00000 0.00000
											CHANNELS 3 Zrotation Xrotation Yrotation
											JOINT LeftHandMiddle3
											{
												OFFSET 3.56744 0.00000 0.00000
												CHANNELS 3 Zrotation Xrotation Yrotation
												End site
												{
													OFFSET 0.00000 0.00000 0.00000
												}
											}
										}
									}
									JOINT LeftHandRing1
									{
										OFFSET 12.69180 0.00000 -3.06433
										CHANNELS 3 Zrotation Xrotation Yrotation
										JOINT LeftHandRing2
										{
											OFFSET 5.62556 0.00000 0.00000
											CHANNELS 3 Zrotation Xrotation Yrotation
											JOINT LeftHandRing3
											{
												OFFSET 3.56744 0.00000 0.00000
												CHANNELS 3 Zrotation Xrotation Yrotation
												End site
												{
													OFFSET 0.00000 0.00000 0.00000
												}
											}
										}
									}
									JOINT LeftHandPinky1
									{
										OFFSET 11.11390 0.00000 -6.03719
										CHANNELS 3 Zrotation Xrotation Yrotation
										JOINT LeftHandPinky2
										{
											OFFSET 4.52789 0.00000 0.00000
											CHANNELS 3 Zrotation Xrotation Yrotation
											JOINT LeftHandPinky3
											{
												OFFSET 2.46976 0.00000 0.00000
												CHANNELS 3 Zrotation Xrotation Yrotation
												End site
												{
													OFFSET 0.00000 0.00000 0.00000
												}
											}
										}
									}
								}
							}
						}
					}
					JOINT pCube4
					{
						OFFSET 0.00000 10.91090 1.10792
						CHANNELS 3 Zrotation Xrotation Yrotation
						End site
						{
							OFFSET 0.00000 0.00000 0.00000
						}
					}
				}
			}
		}
	}
	JOINT RightUpLeg
	{
		OFFSET -9.98441 0.00000 0.00000
		CHANNELS 3 Zrotation Xrotation Yrotation
		JOINT RightLeg
		{
			OFFSET 0.00000 -42.11790 0.00000
			CHANNELS 3 Zrotation Xrotation Yrotation
			JOINT RightFoot
			{
				OFFSET 0.00000 -45.00020 -0.00001
				CHANNELS 3 Zrotation Xrotation Yrotation
				JOINT RightForeFoot
				{
					OFFSET 0.00000 -3.74820 0.00000
					CHANNELS 3 Zrotation Xrotation Yrotation
					JOINT RightToeBase
					{
						OFFSET 0.00000 0.06325 14.43120
						CHANNELS 3 Zrotation Xrotation Yrotation
						End site
						{
							OFFSET 0.00000 0.00000 0.00000
						}
					}
				}
			}
		}
	}
	JOINT LeftUpLeg
	{
		OFFSET 9.98441 0.00000 0.00000
		CHANNELS 3 Zrotation Xrotation Yrotation
		JOINT LeftLeg
		{
			OFFSET 0.00000 -42.11800 0.00000
			CHANNELS 3 Zrotation Xrotation Yrotation
			JOINT LeftFoot
			{
				OFFSET 0.00000 -45.00070 0.00000
				CHANNELS 3 Zrotation Xrotation Yrotation
				JOINT LeftForeFoot
				{
					OFFSET 0.00000 -3.74824 0.00000
					CHANNELS 3 Zrotation Xrotation Yrotation
					JOINT LeftToeBase
					{
						OFFSET 0.00000 0.06325 14.43110
						CHANNELS 3 Zrotation Xrotation Yrotation
						End site
						{
							OFFSET 0.00000 0.00000 0.00000
						}
					}
				}
			}
		}
	}
}
MOTION
Frames: 4
Frame Time: 0.050000
-0.0007093509085822923 -0.005927539175649745 -0.006460642407211162 -0.04100446214969242 0.03472448761648042 0.020002792018298406 -4.697842640350326 0.7954597271373198 -0.47939756482976315 -0.9721941570041065 3.3106842190556907 0.38835428869879635 -1.1793434323429985 -1.8286519529076029 -1.1904579459643043 -0.6227534684246047 0.29515828846094194 -0.895650549179841 -0.7751760826567636 12.318059759789369 1.0701358724970274 -0.07234320435297445 1.0769212792865552 0.2785656686150634 -0.456914564022887 -12.408087609271554 0.09747604005382852 -0.689381225741641 1.0514742982711767 -12.569747464694336 68.27312512976657 14.625942032722858 5.7789733060413555 29.049614330383346 6.854227564990304 84.41625926714227 24.04071394055115 -0.2870083678605057 -5.78940980467906 4.5064079024424695 -0.16499765075008868 -1.5862247800867195 0.023319596698155236 -0.04125126387373236 -56.24793902421033 0.033648085452484724 0.020843246437981116 -56.24798488850862 -38.792531043588625 0.018820605256541258 -0.013109633525829327 -0.007621337896573435 0.047946193588594484 0.03499500970925694 -0.04925710365275827 -0.004179157467598904 -0.03624137835655922 -36.6855892949359 -0.0467694221711108 0.017639291751004302 -0.006901925055375717 -0.012794530382825157 -0.03864831795189219 0.01566415997183593 -0.014331898212991292 -0.007363017003213025 -19.777007831775375 0.002549931119980539 -0.0038812171826292144 0.01563836233315659 0.023581454056962464 -0.023478744355399234 -0.02586041480958232 -0.038492359651231156 -0.00950962334653217 24.030281647682717 -0.007503664863506074 0.03469783885231156 28.90285191212969 0.02301356565071531 -0.021112273134720232 28.830727213403783 -0.037847113672776024 -0.035708516349406486 4.233248774320268 1.4081776908582886 12.846024696963385 -60.204368205729786 24.834291775689234 -21.66354605847901 2.3910966677290886 13.78232241258674 -67.0528454905477 -11.806180201293182 8.589317560807993 -6.043557364862458 -0.46632388816321485 0.09434534480873269 -8.156081324192304 0.018444493723563816 -0.045966537977649435 44.578316278815294 -0.006573081792531529 -0.019642945384817725 44.53904097832469 12.474803651430395 0.002998804054466001 0.006045192109421315 0.02637207825020347 0.03158301354703175 -0.041281538641566334 -0.019988891261455883 -0.047644701269142734 -0.03928756598378727 11.11932882566003 -0.008564068661638323 -0.009614291344067922 0.019220721855768213 -0.014091275240965508 -0.003634266728824444 0.023466650062403695 0.03341498546637371 0.03334212258871889 4.8053033050853875 -0.013180089526417653 0.04624380301014372 -0.03808321833173638 0.045212433981123845 0.04268601440082163 -0.022806256723080384 0.025889033259262194 0.007776111181778079 -5.604091316083885 -0.04818416120610612 0.01501849643877923 -6.6960031731813014 -0.005980274181339837 -0.03286933953910414 -6.770391765639361 0.04567433330573952 0.018877643970355892 0.013325524298458652 0.03210995468372454 -0.00729609101256426 8.014377134040668 3.504892642379089 -19.229570582503 -0.04150886832058666 10.374758927858293 0.017454512330581064 -5.669168022982701 -15.649773403265813 3.167104038914523 -0.04837184289914494 0.0175939788648853 0.0002612380073113483 -0.03549552319523716 4.685569391758874 -0.04666116774057865 12.473381551070657 -8.262502022550219 6.863436239192439 -0.014146159989337305 46.38580165526205 -0.03618333309718089 -4.3099323380786165 -14.753000002325715 -3.8316440703515933 -0.005619159281178632 -0.031064944926507746 0.025436695463629495 0.02184382825335215 -10.735085664318994 0.0026225044150410314 
-0.034176909986221214 0.021881116254811695 -0.022083374251204522 0.0039296845699045724 0.020291045118571497 0.04091487277648817 -4.686192484312875 0.8671537443020956 -0.5390098759413023 -0.9246308809052692 3.2990940558437356 0.42620332777514974 -1.1714226096586176 -1.7915433367734912 -1.3102845507478964 -0.5563341338455824 0.3036043227313605 -0.86815370548501 -0.7598651505230866 12.196936980031728 0.9706232289341502 -0.04693497382964845 1.0141540393115014 -0.0509637821378497 -0.4227647112819638 -12.437999862761455 0.10711963776722709 -0.5772206818663437 1.05750186418823 -12.651894166325357 68.26508313165603 14.89686190004707 5.438816257956604 29.3654101244667 7.2208712703829345 83.30196363662881 24.243487917135234 -0.28027998433365675 -5.726284847797267 4.544194924959355 -0.0911844182257866 -1.6325212586387712 0.03575451785856601 0.023392427265223694 -56.27311698640168 0.002508427431585485 0.0005618137711297621 -56.27309951704293 -38.74668846073475 -0.017610339175348634 0.03971485424296511 0.0008065740972392049 0.029237896869708367 0.007282994113768989 -0.029891385317593142 -0.005310308559212817 -0.0324748295143376 -36.645045758587706 0.0053106076879376775 0.0050401292506704115 -0.0038203690875211354 -0.009529867543769109 -0.020590087366846945 -0.012990804530703243 -0.03412667065842168 -0.014425390668398921 -19.748316409615967 -0.013720013163078743 -0.049287466966483215 -0.025034545270660413 -0.02369625991556068 0.028428826566590067 -0.025051990743223042 0.04475672589691862 0.021509562753266254 24.049034544384178 -0.025490128516744388 0.013967884840466346 28.896430333963053 -0.04154988828205138 -0.049194146865618196 28.84082217314831 -0.03394080357415153 -0.03582990917301282 4.094477256143908 1.3806798799121405 12.678800289193104 -60.166338190346735 25.43319065799259 -21.464360285450116 2.2578449114634433 13.455589873671189 -66.1542295314957 -11.80424404949933 8.542908079578401 -6.001084683086073 -0.5032049361194567 0.03434003809854115 -8.159445059525886 0.0015740504675988663 -0.045383523652386584 44.5591612673703 -0.00826061654653643 0.019504456382452753 44.56799318401862 12.481152233572928 0.02155869637886109 -0.034283161195804525 -0.04013106078893882 -0.038972706582849556 -0.045092916384068364 -0.010344564372032508 0.03972325306338654 0.006880041580656388 11.141273454814852 -0.002905120641800952 0.024434029091911735 -0.002790296430945142 0.03769774764519442 -0.0023159200171568926 0.024708510787376837 -0.028468291762120547 -0.012345191464570852 4.766872710563144 0.02963414906377154 0.007768453860920258 0.025182604899423276 -0.0405653558383308 -0.0282390642432864 -0.03737561357626939 0.01510780687346487 -0.029830653851143533 -5.621671053432924 0.020657331427715066 0.0035945553295577224 -6.746618955151867 0.007977787932523796 -0.007638789944750091 -6.735023738264423 0.018272942172296386 -0.032985304059135155 0.012685084998165836 0.0385328887074835 0.02858717418344438 8.008102805489436 3.482030654565413 -19.189269850766202 -0.04552922533783748 10.345291692569164 -0.016591530237432938 -5.670029706352806 -15.622808646135487 3.220612304941052 0.0015402176241804612 -0.048368287406091566 -0.030469747775711035 -0.003945656717015131 4.722174314482433 0.01728373962220305 12.460082875308778 -8.215355140994813 6.872104896335477 0.04033298966014155 46.34268277893204 -0.0263014431387782 -4.281292793131758 -14.74012213590315 -3.8252696395377117 0.024403396003221268 0.017760074102747388 -0.04344795041575309 0.012771299428813934 -10.712541925900943 0.04316265140325374 
-0.009351600383134253 -0.020902228997909045 0.014656909589630625 -0.020478558065866164 0.009264367571818958 0.033756034391546695 -4.602964435963016 0.748663128939434 -0.5541101653879497 -0.9329008355025945 3.311521856145173 0.4356231327749502 -1.2090712862599093 -1.7953013851563049 -1.487672936615267 -0.4491636745197869 0.2759919744460098 -0.9379143808715205 -0.7256599317241264 12.14731782662506 0.7905829604396177 -0.07870655559426337 0.9977290038878641 -0.13265683378099102 -0.3371971614666732 -12.45693043472359 0.04785395979711411 -0.6547195122531214 1.0372408520512166 -12.635117136910784 68.35508079287307 14.922249173995208 5.191496989976638 30.115257540656494 7.473623021436255 82.32429043786392 24.406949774069076 -0.2293441049188862 -5.61593148054033 4.5786499615062235 -0.1152611494303256 -1.5699578993084307 0.028671315465745733 0.03991885296559381 -56.24295816021483 0.034229047719527984 -0.0358843197415905 -56.20351144709494 -38.814031749069294 -0.033277698298567526 0.024496123169635266 -0.00022164843985686435 -0.02914067000025611 -0.03346180678077548 0.006907909961186571 -0.00391297995251624 0.01095905624623425 -36.7024688830897 0.011123286536702458 0.01690319998128394 0.032050043358704323 0.01404880808529807 -0.04945177262252171 -0.0016288560954494428 0.026780318782940966 0.0026396182803618082 -19.775017885454357 -0.006162778088379027 -0.006231772948249058 0.042949151419162786 0.032827050714488513 -0.036320404481062864 -0.021196670545358502 0.01664090697394049 -0.010674175392152095 24.08051983290629 -0.03848992599144623 0.009341564482124528 28.881497405565387 0.008352244074221972 -0.021597872606329182 28.840639831347318 0.0034533254345412135 0.01994525371380535 4.12523891489117 1.3775157944263408 12.532690800832405 -60.29408786119881 25.8867329657576 -21.404346771748852 1.702729094104962 13.048685957378211 -65.4068094218102 -11.83947972919613 8.57061142006972 -5.971827866609014 -0.46067721980112214 0.03715615782941252 -8.156572151493275 -0.036716892589272125 -0.021200695043569615 44.55781179258535 -0.029047164340702477 0.04545575902023674 44.54132943492532 12.494542368225291 0.03576561917864577 0.034312055207345905 -0.01666179305332967 -0.0069267728362420716 -0.030038471027246702 0.020975929051786826 0.03821616744072243 0.0026817404157421275 11.0764847429794 -0.017854206003309402 -0.04431393926038312 -0.0008686993840876241 0.01860508502340142 0.03870374611667621 0.041066857532678774 -0.007508173650012319 -0.04825546514301262 4.770537399405929 -0.04978642985637385 0.04478300596493673 -0.04120108615877436 -0.03765473412495546 -0.017664602872179108 -0.022244735967916842 -0.00858491386271512 -0.019358446733825203 -5.626882955417177 -0.015941761254969235 -0.010930476054023742 -6.75207595981882 -0.006164825142429836 0.04396517926687003 -6.728463276597224 -0.02225282999535637 -0.008429579147843874 -0.024175461536721392 -0.0316803028616113 0.03168594398090126 8.007748717750166 3.4931212681020054 -19.214295722182435 -0.009225209873536198 10.439519309995529 0.057494138997390656 -5.651247934444488 -15.653489042805035 3.1909671835796525 -0.0031060857232058058 -0.014663490397473639 -0.01359256203385515 0.008535452683346127 4.689896444964131 -0.023355486234053726 12.47032197643816 -8.194046161456543 6.863553331739888 -0.006766735645319747 46.42547596913521 -0.014949819970570478 -4.301713076839102 -14.735350708738638 -3.8702478400622637 0.04240742684956724 0.012984782910942957 -0.04905915903030248 0.003398366011960405 -10.752739369441196 -0.007690361772565278 
-0.009427307094580043 0.041728794149767615 0.03430069586789636 -0.04588063839966093 0.018045058318813558 -0.03269482657429968 -4.493840433134341 0.5663704021399497 -0.49025551664515693 -0.9129158282103097 3.2801617195064026 0.3413826560288933 -1.2207506380606827 -1.8456841626486855 -1.5403161305750281 -0.4417391354494494 0.24717646497328954 -0.899412761032049 -0.6150517122113244 12.225775994688911 0.7668691363458623 0.0077807355422320895 1.0517946808342167 -0.18809932029794407 -0.3290148773520416 -12.385698342731288 0.05495554373066409 -0.801306126402625 1.0547324931763127 -12.70776969991871 68.51530826273982 14.799907273683647 5.083331093987133 30.849655363076824 7.675048712232635 81.3962170056522 24.524613247294106 -0.28947397637147193 -5.585147544212918 4.487644794615472 -0.11768782222817362 -1.5633684715510372 -0.01037880780313181 0.03775188414663979 -56.26980193214523 0.04040249417040497 -0.03019506369440475 -56.21267634055521 -38.77316615746101 -0.049813911819687105 -0.004709988307690057 0.008258453906055459 -0.046969694799160466 0.005821998165640982 0.006966631053949919 -0.028336449795918307 0.009308468098373351 -36.64380819068589 -0.03386017714903312 -0.02335212594187484 -0.029105263756125703 -0.04032298478049246 -0.0033557908900748506 -0.025613711017565412 -0.034227191753647024 0.003468495682742694 -19.70871257691962 -0.029564578985368607 -0.030644723383326536 0.002411860161812979 -0.0068663389274099375 -0.010966287129188011 -0.014778150867927138 0.019886915038369587 -0.007955433646917344 24.063733529360196 -0.0025352075461300763 -0.006766104175291553 28.856897353596736 -0.013547377786387958 0.001493619030444092 28.90281936000292 0.03581931662148712 0.013661232053524472 4.2449993853228065 1.3693957448640148 12.48247431892223 -60.34088247841109 26.124657244556797 -21.41791756569992 0.8909074059564212 12.499391240924203 -64.82792846100635 -11.760992384352335 8.69212609372503 -5.979339374777373 -0.46129749963091027 0.036383503921414206 -8.128405206158048 0.032354508598892245 -0.01974404127702552 44.58138531527152 0.025960100007783794 -0.04185522260427515 44.55159141067411 12.432185503396049 -0.03597532243935744 -0.007165535946518549 -0.024344330550967016 -0.026468184571458345 -0.03925058119054142 0.029205026987915394 0.00604899520982395 0.04421739938386241 11.080356089242875 -0.03936533435500835 -0.022541594379066016 -0.004140098880716875 -0.0013544050393029944 -0.025807551254184716 0.02478453730667633 0.0021356717992741564 0.0480428393808316 4.729088392713078 -0.001182443753441233 0.0024113191984345933 -0.04263594769916576 0.030999578019513748 0.02595843294184827 0.043628748938017776 0.0165787902512476 0.02207579654091964 -5.5825733978372405 -0.005180978396638811 -0.03882743964179228 -6.742801849661111 0.03944900406010155 -0.0317959883655305 -6.735618749610324 0.012581302091541994 -0.027129389135601926 0.026539478586968118 -0.020773414043484456 -0.032283860409951556 8.04885875028565 3.472219882562746 -19.20675127853553 0.01160445896511855 10.38709437326731 0.02948477345087418 -5.636001042886839 -15.677663151030096 3.2046644413265093 0.038512867902078356 0.027993926838522223 0.018571009672869624 -0.01188827448793811 4.712553888568086 -0.007849958121229435 12.471385242964427 -8.191595669103133 6.8624229867565125 -0.019742061509710845 46.37616092658991 -0.040913063087344104 -4.281243649259875 -14.747147333661555 -3.8081328360809503 -0.04660074923711144 -0.028454683158020706 0.023030503232198102 -0.03105217370775041 -10.756150979207593 -0.009223298585900548 
